<?xml version="1.0" encoding="UTF-8" standalone="no"?>
<!DOCTYPE svg PUBLIC "-//W3C//DTD SVG 1.1//EN" "http://www.w3.org/Graphics/SVG/1.1/DTD/svg11.dtd">
<svg width="100%" height="100%" viewBox="0 0 5315 1418" version="1.1" xmlns="http://www.w3.org/2000/svg" xmlns:xlink="http://www.w3.org/1999/xlink" xml:space="preserve" xmlns:serif="http://www.serif.com/" style="fill-rule:evenodd;clip-rule:evenodd;stroke-linejoin:round;stroke-miterlimit:2;">
    <g transform="matrix(1,0,0,1,118.11,0)">
        <path d="M0,1299.21L1181.1,1299.21L1181.1,909.449L389.764,909.449L389.764,708.661L1181.1,708.661L1181.1,318.898L389.764,318.898L389.764,118.11L0,118.11L0,1299.21Z" style="fill:white;"/>
    </g>
    <g transform="matrix(1,0,0,1,2722.44,-1299.21)">
        <path d="M1181.1,2598.43L1181.1,1417.32L909.449,1417.32L909.449,2208.66L0,2208.66L0,2598.43L1181.1,2598.43ZM265.748,1417.32L-5.906,1417.32L-5.906,2025.59L265.748,2025.59L265.748,1417.32ZM726.378,1417.32L454.724,1417.32L454.724,2025.59L726.378,2025.59L726.378,1417.32Z" style="fill:white;"/>
    </g>
    <g transform="matrix(1,0,0,1,2722.44,-1299.21)">
        <path d="M2480.32,2598.43L2480.32,1417.32L1299.21,1417.32L1299.21,1688.98L2090.55,1688.98L2090.55,1872.05L1299.21,1872.05L1299.21,2143.7L2090.55,2143.7L2090.55,2326.77L1299.21,2326.77L1299.21,2598.43L2480.32,2598.43Z" style="fill:white;"/>
    </g>
    <g transform="matrix(1,0,0,1,118.11,0)">
        <path d="M1688.98,513.78L1688.98,118.11L1299.21,118.11L1299.21,1299.21L1688.98,1299.21L1688.98,903.543L2480.32,903.543L2480.32,513.78L1688.98,513.78Z" style="fill:white;"/>
    </g>
</svg>
